<svg viewBox="0 0 100 100" xmlns="http://www.w3.org/2000/svg" id="Cpu-Chipset--Streamline-Ux">
  <desc>
    Cpu Chipset Streamline Illustration: https://streamlinehq.com
  </desc>
  <path d="M90 81.112a4.041 4.041 0 0 1 -4.04 4.041H14.04A4.039 4.039 0 0 1 10 81.112V18.888a4.039 4.039 0 0 1 4.04 -4.041h71.92A4.041 4.041 0 0 1 90 18.888Z" fill="none" stroke="#020064" stroke-linecap="round" stroke-linejoin="round" stroke-width="1"></path>
  <path d="M80.3 52.02a4.041 4.041 0 0 1 -4.04 4.041H55.252a4.041 4.041 0 0 1 -4.041 -4.041V31.009a4.041 4.041 0 0 1 4.041 -4.04h21.011a4.04 4.04 0 0 1 4.04 4.04Z" fill="none" stroke="#020064" stroke-linecap="round" stroke-linejoin="round" stroke-width="1"></path>
  <path d="m58.485 26.969 0 -4.848" fill="none" stroke="#020064" stroke-linecap="round" stroke-linejoin="round" stroke-width="1"></path>
  <path d="m65.757 26.969 0 -4.848" fill="none" stroke="#020064" stroke-linecap="round" stroke-linejoin="round" stroke-width="1"></path>
  <path d="m73.029 26.969 0 -4.848" fill="none" stroke="#020064" stroke-linecap="round" stroke-linejoin="round" stroke-width="1"></path>
  <path d="m58.485 60.91 0 -4.849" fill="none" stroke="#020064" stroke-linecap="round" stroke-linejoin="round" stroke-width="1"></path>
  <path d="m65.757 60.91 0 -4.849" fill="none" stroke="#020064" stroke-linecap="round" stroke-linejoin="round" stroke-width="1"></path>
  <path d="m73.029 60.91 0 -4.849" fill="none" stroke="#020064" stroke-linecap="round" stroke-linejoin="round" stroke-width="1"></path>
  <path d="m46.364 41.515 4.847 0" fill="none" stroke="#020064" stroke-linecap="round" stroke-linejoin="round" stroke-width="1"></path>
  <path d="m46.364 34.243 4.847 0" fill="none" stroke="#020064" stroke-linecap="round" stroke-linejoin="round" stroke-width="1"></path>
  <path d="m80.303 34.243 4.848 0" fill="none" stroke="#020064" stroke-linecap="round" stroke-linejoin="round" stroke-width="1"></path>
  <path d="m46.364 48.789 4.847 0" fill="none" stroke="#020064" stroke-linecap="round" stroke-linejoin="round" stroke-width="1"></path>
  <path d="m80.303 41.515 4.848 0" fill="none" stroke="#020064" stroke-linecap="round" stroke-linejoin="round" stroke-width="1"></path>
  <path d="m80.303 48.789 4.848 0" fill="none" stroke="#020064" stroke-linecap="round" stroke-linejoin="round" stroke-width="1"></path>
  <path d="M22.121 53.873a2.021 2.021 0 0 1 -2.02 2.02h-0.809a2.021 2.021 0 0 1 -2.02 -2.02v-29.9a2.02 2.02 0 0 1 2.02 -2.02h0.808a2.021 2.021 0 0 1 2.02 2.02Z" fill="none" stroke="#020064" stroke-linecap="round" stroke-linejoin="round" stroke-width="1"></path>
  <path d="M34.243 53.873a2.022 2.022 0 0 1 -2.021 2.02h-0.808a2.021 2.021 0 0 1 -2.021 -2.02v-29.9a2.02 2.02 0 0 1 2.021 -2.02h0.808a2.022 2.022 0 0 1 2.021 2.02Z" fill="none" stroke="#020064" stroke-linecap="round" stroke-linejoin="round" stroke-width="1"></path>
  <path d="M75.454 49.191a2.019 2.019 0 0 1 -2.02 2.02H58.081a2.018 2.018 0 0 1 -2.02 -2.02V33.838a2.019 2.019 0 0 1 2.02 -2.02h15.353a2.02 2.02 0 0 1 2.02 2.02Z" fill="none" stroke="#020064" stroke-linecap="round" stroke-linejoin="round" stroke-width="1"></path>
  <path d="M34.243 64.546a3.637 3.637 0 1 1 -3.638 -3.636 3.638 3.638 0 0 1 3.638 3.636Z" fill="none" stroke="#020064" stroke-linecap="round" stroke-linejoin="round" stroke-width="1"></path>
  <path d="M17.272 85.153V71.315a2.025 2.025 0 0 1 0.442 -1.263l3.963 -4.952a2.014 2.014 0 0 0 0.444 -1.26V59.7" fill="none" stroke="#020064" stroke-linecap="round" stroke-linejoin="round" stroke-width="1"></path>
  <path d="M24.544 85.153V73.868a2.019 2.019 0 0 1 0.592 -1.429l1.833 -1.832" fill="none" stroke="#020064" stroke-linecap="round" stroke-linejoin="round" stroke-width="1"></path>
  <path d="m31.818 73.031 0 12.122" fill="none" stroke="#020064" stroke-linecap="round" stroke-linejoin="round" stroke-width="1"></path>
  <path d="m39.09 85.153 0 -31.517" fill="none" stroke="#020064" stroke-linecap="round" stroke-linejoin="round" stroke-width="1"></path>
  <path d="m46.364 85.153 0 -26.668" fill="none" stroke="#020064" stroke-linecap="round" stroke-linejoin="round" stroke-width="1"></path>
  <path d="m39.09 14.847 0 10.91" fill="none" stroke="#020064" stroke-linecap="round" stroke-linejoin="round" stroke-width="1"></path>
  <path d="M46.364 14.847v12.388a2.02 2.02 0 0 1 -0.728 1.553l-5.818 4.849a2.013 2.013 0 0 0 -0.728 1.551V40.3" fill="none" stroke="#020064" stroke-linecap="round" stroke-linejoin="round" stroke-width="1"></path>
  <path d="M80.3 68.014v-2.631a2.019 2.019 0 0 1 0.592 -1.429l3.664 -3.665a2.023 2.023 0 0 0 0.592 -1.429v-4.011" fill="none" stroke="#020064" stroke-linecap="round" stroke-linejoin="round" stroke-width="1"></path>
  <path d="M80.3 85.153v-7.442" fill="none" stroke="#020064" stroke-linecap="round" stroke-linejoin="round" stroke-width="1"></path>
  <path d="M51.211 72.862v-2.827a2.021 2.021 0 0 1 2.021 -2.021h27.476a2.021 2.021 0 0 1 2.02 2.021v2.827Z" fill="none" stroke="#020064" stroke-linecap="round" stroke-linejoin="round" stroke-width="1"></path>
  <path d="M53.232 77.711a2.022 2.022 0 0 1 -2.021 -2.02v-2.829h31.517v2.829a2.021 2.021 0 0 1 -2.02 2.02Z" fill="none" stroke="#020064" stroke-linecap="round" stroke-linejoin="round" stroke-width="1"></path>
  <path d="m73.029 85.153 0 -7.274" fill="none" stroke="#020064" stroke-linecap="round" stroke-linejoin="round" stroke-width="1"></path>
  <path d="m65.757 85.153 0 -7.274" fill="none" stroke="#020064" stroke-linecap="round" stroke-linejoin="round" stroke-width="1"></path>
</svg>